<?xml version="1.0" encoding="iso-8859-1"?>
<!-- Generator: Adobe Illustrator 18.0.0, SVG Export Plug-In . SVG Version: 6.00 Build 0)  -->
<!DOCTYPE svg PUBLIC "-//W3C//DTD SVG 1.1//EN" "http://www.w3.org/Graphics/SVG/1.1/DTD/svg11.dtd">
<svg version="1.1" id="Capa_1" xmlns="http://www.w3.org/2000/svg" xmlns:xlink="http://www.w3.org/1999/xlink" x="0px" y="0px"
	 viewBox="0 0 55.188 55.188" style="enable-background:new 0 0 55.188 55.188;" xml:space="preserve">
<path d="M48.535,39.815c-0.922-0.545-1.473-1.509-1.473-2.578c0-0.498,0.122-0.972,0.361-1.408c0.547-0.997,0.547-2.187,0-3.183
	c-0.24-0.437-0.361-0.911-0.361-1.409c0-0.484,0.112-0.946,0.331-1.372c0.487-0.942,0.509-2.011,0.062-2.932
	c-0.261-0.536-0.393-1.106-0.393-1.696c0-0.27,0.027-0.541,0.081-0.806l0.247-1.217l-1.242,0.018l-0.086,0.005c-2.757,0-5-2.243-5-5
	c0-0.491,0.071-0.977,0.212-1.443c0.286-0.944,0.107-1.947-0.49-2.751c-0.639-0.86-1.664-1.349-2.74-1.285
	c-1.688,0.103-3.566,0.404-5.739,0.918c-0.782,0.186-1.586,0.282-2.394,0.336c0.594-4.433,3.672-7.78,7.224-7.653
	c0.572,0.029,1.016-0.411,1.036-0.963s-0.411-1.016-0.963-1.036c-3.561-0.111-6.706,2.299-8.3,5.897L28.436,7.08
	c-0.501-3.368-3.102-5.969-6.47-6.471L17.875,0l0.609,4.091c0.502,3.368,3.103,5.968,6.47,6.47l3.618,0.539
	c-0.327,0.915-0.563,1.89-0.679,2.915c-0.85-0.056-1.701-0.157-2.539-0.354c-2.704-0.637-4.982-0.947-6.966-0.947
	c-3.658,0-6.47,1.04-8.598,3.179c-3.225,3.241-4.771,8.976-4.727,17.533c0.05,9.796,8.554,21.763,18.408,21.763
	c1.391,0,2.774-0.238,4.113-0.707c0.832-0.292,1.735-0.291,2.575,0.003c1.335,0.467,2.715,0.704,4.102,0.704c0,0,0.001,0,0.001,0
	c5.859,0,11.79-4.244,15.476-11.076C50.561,42.588,50.032,40.701,48.535,39.815z M25.011,36.42c-0.271,1.245-1.5,2.035-2.746,1.764
	c-1.245-0.271-2.035-1.5-1.764-2.746c0.271-1.245,3.867-7.031,3.891-7.026C24.392,28.413,25.282,35.175,25.011,36.42z M34.86,38.185
	c-1.245,0.271-2.475-0.519-2.746-1.764c-0.271-1.245,0.619-8.007,0.619-8.007c0.023-0.005,3.62,5.78,3.891,7.026
	C36.895,36.684,36.105,37.914,34.86,38.185z"/>
<g>
</g>
<g>
</g>
<g>
</g>
<g>
</g>
<g>
</g>
<g>
</g>
<g>
</g>
<g>
</g>
<g>
</g>
<g>
</g>
<g>
</g>
<g>
</g>
<g>
</g>
<g>
</g>
<g>
</g>
</svg>
