<?xml version="1.0" encoding="iso-8859-1"?>
<!-- Generator: Adobe Illustrator 18.0.0, SVG Export Plug-In . SVG Version: 6.00 Build 0)  -->
<!DOCTYPE svg PUBLIC "-//W3C//DTD SVG 1.1//EN" "http://www.w3.org/Graphics/SVG/1.1/DTD/svg11.dtd">
<svg version="1.1" id="Capa_1" xmlns="http://www.w3.org/2000/svg" xmlns:xlink="http://www.w3.org/1999/xlink" x="0px" y="0px"
	 viewBox="0 0 53 53" style="enable-background:new 0 0 53 53;" xml:space="preserve">
<g>
	<path d="M28.765,6.438l-0.001,0.001c0.417,0.305,0.699,0.757,0.752,1.209c0.038,0.318-0.043,0.598-0.24,0.83
		c-0.055,0.064-0.117,0.127-0.181,0.183c-0.221,0.189-0.453,0.383-0.692,0.58c-0.128,0.106-0.263,0.219-0.395,0.33
		c1.1,1.136,2.194,2.595,2.857,4.518c1.733,0.207,3.315,0.777,4.855,1.344c0.99,0.365,2.014,0.743,3.057,1.009
		c2.565,0.652,5.212,0.33,8.326-1.02l0.952-0.463c-0.864-2.76-2.821-4.408-4.351-5.696c-0.248-0.208-0.488-0.41-0.735-0.627
		c-0.339-0.307-0.396-0.684-0.383-0.945C42.607,7.2,42.874,6.717,43.3,6.396l0.108-0.096l-0.002-0.003
		C44.068,5.747,44.5,4.927,44.5,4V3c0-1.654-1.346-3-3-3h-11c-1.654,0-3,1.346-3,3v1C27.5,5.006,28.002,5.894,28.765,6.438z M29.5,3
		c0-0.552,0.449-1,1-1h11c0.551,0,1,0.448,1,1v1c0,0.338-0.179,0.623-0.437,0.803C41.932,4.9,41.748,5,41.5,5h-11
		c-0.127,0-0.246-0.029-0.357-0.072c-0.041-0.017-0.069-0.036-0.104-0.055C29.723,4.705,29.5,4.383,29.5,4V3z"/>
	<path d="M37.491,41H48.5v-2h-5.009c-0.552,0-1-0.447-1-1s0.448-1,1-1H48.5v-2h-7.009c-0.552,0-1-0.447-1-1s0.448-1,1-1H48.5v-5
		h-5.009c-0.552,0-1-0.447-1-1s0.448-1,1-1H48.5v-2H37.491V41z"/>
	<path d="M48.451,16.991l-0.513,0.25c-2.37,1.027-4.51,1.531-6.562,1.531c-1.048,0-2.072-0.131-3.093-0.392
		c-1.144-0.291-2.217-0.687-3.255-1.069c-1.233-0.455-2.426-0.887-3.66-1.123C31.45,16.759,31.5,17.36,31.5,18v6.723v2.338v21.158
		c0,1.864-0.756,3.554-1.978,4.781H43.72c2.636,0,4.78-2.145,4.78-4.781V43H35.491V22H48.5v-4
		C48.5,17.649,48.48,17.316,48.451,16.991z"/>
	<path d="M17.266,25.37c-4.355,1.856-7.426,1.801-12.167-0.22L4.5,24.901v23.318C4.5,50.855,6.645,53,9.281,53h15.438
		c2.636,0,4.781-2.145,4.781-4.781V25.847l-1.457-0.885C24.357,23.406,21.628,23.511,17.266,25.37z"/>
	<path d="M24.704,9.266c-0.248-0.208-0.489-0.411-0.736-0.628c-0.339-0.307-0.396-0.684-0.383-0.945
		C23.607,7.2,23.874,6.717,24.3,6.396l0.121-0.107l-0.002-0.002C25.074,5.736,25.5,4.921,25.5,4V3c0-1.654-1.346-3-3-3h-11
		c-1.654,0-3,1.346-3,3v1c0,1.007,0.502,1.895,1.266,2.439L9.765,6.44c0.417,0.305,0.698,0.756,0.751,1.208
		c0.038,0.319-0.043,0.599-0.24,0.83c-0.055,0.064-0.117,0.127-0.181,0.183C9.868,8.856,9.628,9.054,9.383,9.258
		C7.322,10.961,4.5,13.295,4.5,18v4.735l1.375,0.572c4.214,1.795,6.79,1.849,10.606,0.223c4.105-1.75,7.614-2.425,12.41-0.381
		l0.127,0.065l0.481,0.292V18C29.5,13.299,26.728,10.968,24.704,9.266z M10.5,3c0-0.552,0.449-1,1-1h11c0.551,0,1,0.448,1,1v1
		c0,0.334-0.175,0.615-0.427,0.797C22.941,4.896,22.753,5,22.5,5h-11c-0.126,0-0.245-0.029-0.357-0.072
		c-0.041-0.017-0.07-0.036-0.104-0.055C10.723,4.705,10.5,4.383,10.5,4V3z"/>
</g>
<g>
</g>
<g>
</g>
<g>
</g>
<g>
</g>
<g>
</g>
<g>
</g>
<g>
</g>
<g>
</g>
<g>
</g>
<g>
</g>
<g>
</g>
<g>
</g>
<g>
</g>
<g>
</g>
<g>
</g>
</svg>
